<svg width="63.000000" height="28.000000" viewBox="0 0 63 28" fill="none" xmlns="http://www.w3.org/2000/svg" xmlns:xlink="http://www.w3.org/1999/xlink">
	<desc>
			Created with Pixso.
	</desc>
	<defs>
		<filter id="filter_25_68544_dd" x="0.000000" y="0.000000" width="63.000000" height="28.000000" filterUnits="userSpaceOnUse" color-interpolation-filters="sRGB">
			<feFlood flood-opacity="0" result="BackgroundImageFix"/>
			<feColorMatrix in="SourceAlpha" type="matrix" values="0 0 0 0 0 0 0 0 0 0 0 0 0 0 0 0 0 0 127 0" result="hardAlpha"/>
			<feOffset dx="0" dy="1"/>
			<feGaussianBlur stdDeviation="0.666667"/>
			<feComposite in2="hardAlpha" operator="out" k2="-1" k3="1"/>
			<feColorMatrix type="matrix" values="0 0 0 0 0 0 0 0 0 0.062745 0 0 0 0 0.094118 0 0 0 0.051 0"/>
			<feBlend mode="normal" in2="BackgroundImageFix" result="effect_dropShadow_1"/>
			<feBlend mode="normal" in="SourceGraphic" in2="effect_dropShadow_1" result="shape"/>
		</filter>
		<clipPath id="clip25_68541">
			<rect id="corner-down-left" width="12.000000" height="12.000000" transform="translate(8.000000 7.000000)" fill="white" fill-opacity="0"/>
		</clipPath>
	</defs>
	<g filter="url(#filter_25_68544_dd)">
		<rect id="Badge" rx="2.000000" width="58.000000" height="23.000000" transform="translate(2.500000 1.500000)" fill="#FFFFFF" fill-opacity="1.000000"/>
		<rect id="corner-down-left" width="12.000000" height="12.000000" transform="translate(8.000000 7.000000)" fill="#FFFFFF" fill-opacity="0"/>
		<g clip-path="url(#clip25_68541)">
			<path id="Icon" d="M18 9L18 9.7002C18 11.3799 18 12.2207 17.673 12.8623C17.3854 13.4268 16.9265 13.8857 16.3619 14.1729C15.7202 14.5 14.8801 14.5 13.2 14.5L10 14.5M12.5 12L10 14.5L12.5 17" stroke="#98A2B3" stroke-opacity="1.000000" stroke-width="1.000000" stroke-linejoin="round"/>
		</g>
		<path id="Text" d="M25.23 16L30.7525 16L30.7525 14.8662L26.5484 14.8662L26.5484 12.1943L30.4156 12.1943L30.4156 11.0664L26.5484 11.0664L26.5484 8.40625L30.7027 8.40625L30.7027 7.27246L25.23 7.27246L25.23 16ZM33.6377 12.1123C33.6377 11.0693 34.2764 10.4717 35.1641 10.4717C36.0283 10.4717 36.5527 11.04 36.5527 11.9893L36.5527 16L37.8271 16L37.8271 11.8369C37.8271 10.2168 36.9365 9.37012 35.5977 9.37012C34.6133 9.37012 33.9717 9.82422 33.667 10.5186L33.5879 10.5186L33.5879 9.45508L32.3633 9.45508L32.3633 16L33.6377 16L33.6377 12.1123ZM42.5866 9.45508L41.2448 9.45508L41.2448 7.8877L39.9703 7.8877L39.9703 9.45508L39.0123 9.45508L39.0123 10.4775L39.9703 10.4775L39.9703 14.3418C39.9674 15.5312 40.8756 16.1055 41.8805 16.085C42.2848 16.082 42.5573 16.0029 42.7067 15.9502L42.4752 14.8955C42.3903 14.9131 42.235 14.9512 42.0299 14.9512C41.6168 14.9512 41.2448 14.8164 41.2448 14.0781L41.2448 10.4775L42.5866 10.4775L42.5866 9.45508ZM46.7457 16.1318C48.1753 16.1318 49.1832 15.4287 49.4732 14.3623L48.2691 14.1455C48.0376 14.7637 47.4839 15.0801 46.7603 15.0801C45.6675 15.0801 44.9351 14.3711 44.8999 13.1113L49.5552 13.1113L49.5552 12.6602C49.5552 10.293 48.1402 9.37012 46.6578 9.37012C44.8326 9.37012 43.6314 10.7588 43.6314 12.7686C43.6314 14.8018 44.815 16.1318 46.7457 16.1318ZM44.9058 12.1562C44.9556 11.2275 45.6294 10.4219 46.6665 10.4219C47.6539 10.4219 48.3013 11.1543 48.3072 12.1562L44.9058 12.1562ZM50.9727 16L52.2471 16L52.2471 12.0039C52.2471 11.1455 52.9092 10.5273 53.8115 10.5273C54.0752 10.5273 54.374 10.5742 54.4766 10.6064L54.4766 9.3877C54.3477 9.37012 54.0986 9.35547 53.9346 9.35547C53.167 9.35547 52.5107 9.79199 52.2734 10.4951L52.2061 10.4951L52.2061 9.45508L50.9727 9.45508L50.9727 16Z" fill="#98A2B3" fill-opacity="1.000000" fill-rule="evenodd"/>
	</g>
	<rect id="Badge" rx="2.000000" width="58.000000" height="23.000000" transform="translate(2.500000 1.500000)" stroke="#EAECF0" stroke-opacity="1.000000" stroke-width="1.000000"/>
</svg>
