<svg width="11.000000" height="18.000000" viewBox="0 0 11 18" fill="none" xmlns="http://www.w3.org/2000/svg" xmlns:xlink="http://www.w3.org/1999/xlink">
	<desc>
			Created with Pixso.
	</desc>
	<defs/>
	<path id="Icon" d="M9 3C8.44772 3 8 2.55273 8 2C8 1.44727 8.44772 1 9 1C9.55228 1 10 1.44727 10 2C10 2.55273 9.55228 3 9 3ZM9 10C8.44772 10 8 9.55273 8 9C8 8.44727 8.44772 8 9 8C9.55228 8 10 8.44727 10 9C10 9.55273 9.55228 10 9 10ZM9 17C8.44772 17 8 16.5527 8 16C8 15.4473 8.44772 15 9 15C9.55228 15 10 15.4473 10 16C10 16.5527 9.55228 17 9 17ZM2 3C1.44772 3 1 2.55273 1 2C1 1.44727 1.44772 1 2 1C2.55228 1 3 1.44727 3 2C3 2.55273 2.55228 3 2 3ZM2 10C1.44772 10 1 9.55273 1 9C1 8.44727 1.44772 8 2 8C2.55228 8 3 8.44727 3 9C3 9.55273 2.55228 10 2 10ZM2 17C1.44772 17 1 16.5527 1 16C1 15.4473 1.44772 15 2 15C2.55228 15 3 15.4473 3 16C3 16.5527 2.55228 17 2 17Z" stroke="#D0D5DD" stroke-opacity="1.000000" stroke-width="2.000000" stroke-linejoin="round"/>
</svg>
