<svg width="19.500000" height="19.959961" viewBox="0 0 19.5 19.96" fill="none" xmlns="http://www.w3.org/2000/svg" xmlns:xlink="http://www.w3.org/1999/xlink">
	<desc>
			Created with Pixso.
	</desc>
	<defs/>
	<path id="Icon" d="M13.95 0.75C15.6302 0.75 16.4702 0.75 17.112 1.07715C17.6765 1.36426 18.1354 1.82324 18.423 2.3877C18.75 3.0293 18.75 3.87012 18.75 5.5498L18.75 10.9502C18.75 12.6299 18.75 13.4707 18.423 14.1123C18.1354 14.6768 17.6765 15.1357 17.112 15.4229C16.4702 15.75 15.6301 15.75 13.95 15.75L11.4338 15.75C10.8097 15.75 10.4977 15.75 10.1992 15.8115C9.93445 15.8652 9.67822 15.9551 9.4375 16.0781C9.1662 16.2168 8.92255 16.4121 8.43524 16.8018L6.04974 18.71C5.63367 19.043 5.4256 19.21 5.25055 19.21C5.09827 19.21 4.95422 19.1406 4.85925 19.0215C4.75 18.8848 4.75 18.6182 4.75 18.0859L4.75 15.75C3.82001 15.75 3.35504 15.75 2.97357 15.6475C1.93829 15.3701 1.12964 14.5615 0.852234 13.5264C0.75 13.1445 0.75 12.6797 0.75 11.75L0.75 5.5498C0.75 3.87012 0.75 3.0293 1.07697 2.3877C1.36462 1.82324 1.82355 1.36426 2.388 1.07715C3.02979 0.75 3.86987 0.75 5.54999 0.75L13.95 0.75Z" stroke="#D0D5DD" stroke-opacity="1.000000" stroke-width="1.500000" stroke-linejoin="round"/>
</svg>
